<?xml version="1.0" encoding="UTF-8" standalone="no"?>
<!-- Created with Inkscape (http://www.inkscape.org/) -->

<svg
   xmlns:dc="http://purl.org/dc/elements/1.1/"
   xmlns:cc="http://creativecommons.org/ns#"
   xmlns:rdf="http://www.w3.org/1999/02/22-rdf-syntax-ns#"
   xmlns:svg="http://www.w3.org/2000/svg"
   xmlns="http://www.w3.org/2000/svg"
   xmlns:sodipodi="http://sodipodi.sourceforge.net/DTD/sodipodi-0.dtd"
   xmlns:inkscape="http://www.inkscape.org/namespaces/inkscape"
   width="744.09448819"
   height="1052.3622047"
   id="svg2"
   version="1.1"
   inkscape:version="0.48.3.1 r9886"
   sodipodi:docname="New document 1">
  <defs
     id="defs4">
    <marker
       inkscape:stockid="Arrow1Mstart"
       orient="auto"
       refY="0.0"
       refX="0.0"
       id="Arrow1Mstart"
       style="overflow:visible">
      <path
         id="path3845"
         d="M 0.0,0.0 L 5.0,-5.0 L -12.5,0.0 L 5.0,5.0 L 0.0,0.0 z "
         style="fill-rule:evenodd;stroke:#000000;stroke-width:1.0pt"
         transform="scale(0.4) translate(10,0)" />
    </marker>
    <marker
       inkscape:stockid="Arrow1Mend"
       orient="auto"
       refY="0.0"
       refX="0.0"
       id="Arrow1Mend"
       style="overflow:visible;">
      <path
         id="path3848"
         d="M 0.0,0.0 L 5.0,-5.0 L -12.5,0.0 L 5.0,5.0 L 0.0,0.0 z "
         style="fill-rule:evenodd;stroke:#000000;stroke-width:1.0pt;"
         transform="scale(0.4) rotate(180) translate(10,0)" />
    </marker>
    <marker
       inkscape:stockid="Arrow1Mend"
       orient="auto"
       refY="0"
       refX="0"
       id="Arrow1Mend-8"
       style="overflow:visible">
      <path
         inkscape:connector-curvature="0"
         id="path3848-1"
         d="M 0,0 5,-5 -12.5,0 5,5 0,0 z"
         style="fill-rule:evenodd;stroke:#000000;stroke-width:1pt"
         transform="matrix(-0.4,0,0,-0.4,-4,0)" />
    </marker>
    <marker
       inkscape:stockid="Arrow1Mend"
       orient="auto"
       refY="0"
       refX="0"
       id="Arrow1Mend-5"
       style="overflow:visible">
      <path
         inkscape:connector-curvature="0"
         id="path3848-2"
         d="M 0,0 5,-5 -12.5,0 5,5 0,0 z"
         style="fill-rule:evenodd;stroke:#000000;stroke-width:1pt"
         transform="matrix(-0.4,0,0,-0.4,-4,0)" />
    </marker>
    <marker
       inkscape:stockid="Arrow1Mend"
       orient="auto"
       refY="0"
       refX="0"
       id="Arrow1Mend-4"
       style="overflow:visible">
      <path
         inkscape:connector-curvature="0"
         id="path3848-7"
         d="M 0,0 5,-5 -12.5,0 5,5 0,0 z"
         style="fill-rule:evenodd;stroke:#000000;stroke-width:1pt"
         transform="matrix(-0.4,0,0,-0.4,-4,0)" />
    </marker>
    <marker
       inkscape:stockid="Arrow1Mend"
       orient="auto"
       refY="0"
       refX="0"
       id="Arrow1Mend-3"
       style="overflow:visible">
      <path
         inkscape:connector-curvature="0"
         id="path3848-21"
         d="M 0,0 5,-5 -12.5,0 5,5 0,0 z"
         style="fill-rule:evenodd;stroke:#000000;stroke-width:1pt"
         transform="matrix(-0.4,0,0,-0.4,-4,0)" />
    </marker>
    <marker
       inkscape:stockid="Arrow1Mstart"
       orient="auto"
       refY="0"
       refX="0"
       id="Arrow1Mstart-7"
       style="overflow:visible">
      <path
         inkscape:connector-curvature="0"
         id="path3845-4"
         d="M 0,0 5,-5 -12.5,0 5,5 0,0 z"
         style="fill-rule:evenodd;stroke:#000000;stroke-width:1pt"
         transform="matrix(0.4,0,0,0.4,4,0)" />
    </marker>
    <marker
       inkscape:stockid="Arrow1Mend"
       orient="auto"
       refY="0"
       refX="0"
       id="Arrow1Mend-3-4"
       style="overflow:visible">
      <path
         inkscape:connector-curvature="0"
         id="path3848-21-2"
         d="M 0,0 5,-5 -12.5,0 5,5 0,0 z"
         style="fill-rule:evenodd;stroke:#000000;stroke-width:1pt"
         transform="matrix(-0.4,0,0,-0.4,-4,0)" />
    </marker>
  </defs>
  <sodipodi:namedview
     id="base"
     pagecolor="#ffffff"
     bordercolor="#666666"
     borderopacity="1.0"
     inkscape:pageopacity="0.0"
     inkscape:pageshadow="2"
     inkscape:zoom="1.4"
     inkscape:cx="349.9353"
     inkscape:cy="667.59979"
     inkscape:document-units="px"
     inkscape:current-layer="layer1"
     showgrid="false"
     inkscape:window-width="1855"
     inkscape:window-height="1056"
     inkscape:window-x="65"
     inkscape:window-y="24"
     inkscape:window-maximized="1" />
  <metadata
     id="metadata7">
    <rdf:RDF>
      <cc:Work
         rdf:about="">
        <dc:format>image/svg+xml</dc:format>
        <dc:type
           rdf:resource="http://purl.org/dc/dcmitype/StillImage" />
        <dc:title></dc:title>
      </cc:Work>
    </rdf:RDF>
  </metadata>
  <g
     inkscape:label="Layer 1"
     inkscape:groupmode="layer"
     id="layer1">
    <path
       style="fill:#fff6d5;fill-opacity:1;stroke:#ffe680;stroke-width:1px;stroke-linecap:butt;stroke-linejoin:miter;stroke-opacity:1"
       d="m 572.5,133.07646 1.42858,140.71429 -51.07143,0.71429 c 0,0 1.01948,-4.63811 2.85714,-5.71429 2.15974,-1.2648 5.17102,-0.55939 7.5,0.35714 1.88649,0.7424 4.64286,3.92857 4.64286,3.92857 0,0 2.4648,-3.41054 4.28571,-4.28571 1.94325,-0.93397 4.4285,-1.51941 6.42857,-0.71429 1.72506,0.69442 3.57143,4.28572 3.57143,4.28572 0,0 2.84355,-2.81325 4.64286,-3.57143 2.32721,-0.98063 5.17402,-2.05498 7.5,-1.07143 1.49137,0.63063 2.85714,3.92857 2.85714,3.92857 l 2.85714,0 c 0,0 -2.61093,-2.88864 -2.5,-4.64285 0.12926,-2.04409 3.57143,-5 3.57143,-5 0,0 -4.47023,-3.78396 -5.35714,-6.42858 -0.7958,-2.37295 -0.65539,-5.21112 0.35714,-7.5 1.02165,-2.3095 5.35715,-5.35714 5.35715,-5.35714 0,0 -4.86476,-3.73941 -6.07143,-6.42857 -1.12518,-2.50755 -1.90488,-5.73712 -0.71429,-8.21429 1.11563,-2.32121 6.42857,-4.28571 6.42857,-4.28571 0,0 -7.98347,-4.9661 -7.85714,-8.92857 0.11266,-3.53374 7.5,-7.5 7.5,-7.5 0,0 -8.1666,-5.24293 -7.85714,-9.28572 0.27694,-3.61792 8.21428,-7.14285 8.21428,-7.14285 0,0 -9.46351,-5.72381 -9.28571,-10.35715 0.14529,-3.78622 8.21428,-7.85714 8.21428,-7.85714 0,0 -7.89923,-4.42551 -7.85714,-8.21428 0.0374,-3.36697 7.14286,-7.14286 7.14286,-7.14286 0,0 -6.97648,-2.951 -7.14286,-6.07143 -0.17486,-3.27942 6.78572,-7.14286 6.78572,-7.14286 0,0 -4.24522,-3.16548 -3.92858,-5.35714 0.44942,-3.11065 7.5,-5.71429 7.5,-5.71429 z"
       id="path3805"
       inkscape:connector-curvature="0"
       sodipodi:nodetypes="cccaacaacaaccacaacaacacacacacacac" />
    <path
       style="fill:#c8ab37;stroke:#a0892c;stroke-width:1px;stroke-linecap:butt;stroke-linejoin:miter;stroke-opacity:1"
       d="m 230.35714,173.11447 c 3.02879,-2.28039 7.6471,-3.28744 11.78572,-3.17234 4.37473,0.12167 9.73143,1.08753 12.14285,4.03752 4.91908,6.01772 0.33002,14.44044 -0.35714,21.62954 -1.11034,11.6164 -3.59378,23.1294 -6.07143,34.60728 -1.71196,7.93081 -2.63943,16.08997 -6.07143,23.64831 -3.68612,8.11798 -15.35714,22.78312 -15.35714,22.78312 L 220,273.47556 c 0,0 10.95369,-12.52009 14.28571,-19.61078 8.78002,-18.68429 12.26693,-38.91475 14.28572,-58.83237 0.64123,-6.32642 2.9881,-13.43458 -0.71429,-19.034 -2.41171,-3.64742 -7.38916,-6.95691 -12.5,-7.20986 -6.22101,-0.30788 -16.42856,7.20986 -16.42856,7.20986 l 4.64285,10.38218 c -0.3566,-4.47723 2.45221,-10.00341 6.78571,-13.26612 z"
       id="path3783"
       inkscape:connector-curvature="0"
       sodipodi:nodetypes="aaaaaaccaaaacca" />
    <path
       style="fill:#e9ddaf;stroke:#a0892c;stroke-width:1px;stroke-linecap:butt;stroke-linejoin:miter;stroke-opacity:1"
       d="m 191.21469,294.15604 38.08994,-13.5504 -2.02031,-139.40105 c -2.16449,-7.56281 -2.77957,-15.46994 -13.13198,-21.21321 l -92.93403,-10.10152 -17.1726,7.07107 z"
       id="path2987"
       inkscape:connector-curvature="0"
       sodipodi:nodetypes="ccccccc" />
    <path
       style="fill:#a0892c;stroke:#786721;stroke-width:1px;stroke-linecap:butt;stroke-linejoin:miter;stroke-opacity:1"
       d="m 87.883271,268.48381 103.035559,26.26396 3.03046,-145.46196 c 0.76241,-8.08806 0.31636,-16.08317 -11.11168,-23.23351 0,0 -72.65213,-8.47735 -76.77159,-9.09137 -5.93546,-0.8847 -18.593676,15.99662 -17.713567,16.87673 z"
       id="path2985"
       inkscape:connector-curvature="0"
       sodipodi:nodetypes="ccccscc" />
    <flowRoot
       xml:space="preserve"
       id="flowRoot2997"
       style="font-size:12px;font-style:normal;font-weight:normal;line-height:125%;letter-spacing:0px;word-spacing:0px;fill:#000000;fill-opacity:1;stroke:none;font-family:Sans"><flowRegion
         id="flowRegion2999"><rect
           id="rect3001"
           width="467.70062"
           height="66.670067"
           x="13.131983"
           y="23.016739"
           style="font-size:12px" /></flowRegion><flowPara
         id="flowPara3003">Sac à dos</flowPara></flowRoot>    <path
       style="fill:none;stroke:#000000;stroke-width:2;stroke-linecap:butt;stroke-linejoin:miter;stroke-opacity:1;stroke-miterlimit:4;stroke-dasharray:none"
       d="m 90.357143,177.71932 1.071429,-43.57142 c 2.389038,-6.06334 6.0859,-10.81886 13.214288,-12.14286 l 75.71428,6.78571 c 6.29251,2.95069 10.48398,7.65225 11.07143,15.35715 L 190,192.36218 l 0,-0.35714 0,0"
       id="path3005"
       inkscape:connector-curvature="0"
       sodipodi:nodetypes="cccccccc" />
    <path
       style="fill:#c87137;stroke:#a05a2c;stroke-width:1px;stroke-linecap:butt;stroke-linejoin:miter;stroke-opacity:1"
       d="m 87.5,260.93361 104.28571,24.64286 0,8.92857 -104.999996,-26.78572 z"
       id="path3793"
       inkscape:connector-curvature="0" />
    <path
       style="fill:#a05a2c;stroke:#784421;stroke-width:1px;stroke-linecap:butt;stroke-linejoin:miter;stroke-opacity:1"
       d="M 87.142857,250.57647 100,272.71932 87.142857,269.1479 z"
       id="path3775"
       inkscape:connector-curvature="0" />
    <path
       style="fill:#c87137;stroke:#a05a2c;stroke-width:1px;stroke-linecap:butt;stroke-linejoin:miter;stroke-opacity:1"
       d="m 192.5,285.57647 36.42857,-11.78572 0.71429,6.78572 -37.85715,13.21428 z"
       id="path3795"
       inkscape:connector-curvature="0" />
    <path
       style="fill:#a05a2c;stroke:#784421;stroke-width:1px;stroke-linecap:butt;stroke-linejoin:miter;stroke-opacity:1"
       d="m 176.42857,291.29076 15,3.92856 14.64286,-5.71428 -14.64286,-14.64286 z"
       id="path3777"
       inkscape:connector-curvature="0"
       sodipodi:nodetypes="ccccc" />
    <path
       style="fill:#a05a2c;stroke:#784421;stroke-width:1px;stroke-linecap:butt;stroke-linejoin:miter;stroke-opacity:1"
       d="m 221.42857,283.43361 8.21429,-2.85714 -0.35715,-13.92857 z"
       id="path3779"
       inkscape:connector-curvature="0" />
    <path
       style="fill:#a05a2c;stroke:#502d16;stroke-width:1px;stroke-linecap:butt;stroke-linejoin:miter;stroke-opacity:1"
       d="m 124.28571,113.79075 9.64286,1.42857 c 0,0 4.19203,-5.70793 7.14286,-7.5 4.02535,-2.44464 8.86191,-3.94154 13.57143,-3.92857 5.46192,0.0151 11.78613,0.84782 15.71429,4.64286 2.70746,2.61571 3.57142,10.71429 3.57142,10.71429 l 10,2.85714 8.57143,-2.5 -13.21429,-2.85714 c 0,0 -2.71547,-7.60284 -5.71428,-10 -4.76518,-3.80915 -11.4008,-5.22941 -17.5,-5.35715 -5.65822,-0.11851 -11.8383,0.9753 -16.42857,4.28572 C 137.33962,107.23753 135,112.71932 135,112.71932 l -7.85714,-1.42857 z"
       id="path3781"
       inkscape:connector-curvature="0"
       sodipodi:nodetypes="ccaaaccccaaaccc" />
    <path
       style="opacity:0.3827161;fill:#e9ddaf;fill-opacity:1;stroke:#9d8e50;stroke-width:1px;stroke-linecap:butt;stroke-linejoin:miter;stroke-opacity:1"
       d="m 517.85715,130.21932 1.07143,147.5 57.14285,0 -1.42857,-148.21428 z"
       id="path3785"
       inkscape:connector-curvature="0"
       sodipodi:nodetypes="ccccc" />
    <path
       style="fill:#a05a2c;fill-opacity:1;stroke:#502d16;stroke-width:1px;stroke-linecap:butt;stroke-linejoin:miter;stroke-opacity:0.77254902"
       d="m 535,129.14789 21.07143,0 -5.71429,-4.28571 -0.71428,-12.85714 c 0,0 -2.18281,-4.52573 -4.28572,-4.64286 C 542.99777,107.23076 540,112.00504 540,112.00504 l 0.35714,12.5 z"
       id="path3787"
       inkscape:connector-curvature="0"
       sodipodi:nodetypes="ccccaccc" />
    <path
       style="fill:#fff6d5;stroke:#ffd42a;stroke-width:1px;stroke-linecap:butt;stroke-linejoin:miter;stroke-opacity:1"
       d="m 577.5,167.71932 c 0,0 1.91108,0.97634 2.85715,0.71429 2.10925,-0.58423 2.58247,-3.90457 4.64285,-4.64286 4.61669,-1.65428 10.31622,-0.88026 14.64286,1.42857 3.80576,2.03087 6.83417,5.913 8.21429,10 2.0962,6.20757 -0.0926,13.12047 -0.71429,19.64286 -0.81157,8.51463 -2.31986,16.95657 -3.92857,25.35714 -0.80389,4.19785 -2.85714,12.5 -2.85714,12.5 l 3.21428,0.35714 c 0,0 7.06427,-13.91841 8.92857,-21.42857 2.18902,-8.81828 2.96216,-18.0687 2.5,-27.14285 -0.31471,-6.17903 -0.4549,-12.8695 -3.57142,-18.21429 -1.65859,-2.84446 -4.48137,-5.11339 -7.5,-6.42857 -4.83302,-2.10569 -10.48341,-2.4414 -15.71429,-1.78572 -3.66373,0.45924 -10.35714,3.92858 -10.35714,3.92858 z"
       id="path3799"
       inkscape:connector-curvature="0"
       sodipodi:nodetypes="caaaaaaccaaaaacc" />
    <path
       style="opacity:0.33333333;fill:#c87137;fill-opacity:1;stroke:#a05a2c;stroke-width:1px;stroke-linecap:butt;stroke-linejoin:miter;stroke-opacity:1"
       d="m 519.28572,268.43361 56.42857,-0.71429 0,8.57143 -56.07143,0.71429 z"
       id="path3801"
       inkscape:connector-curvature="0" />
    <path
       style="opacity:0.60905349;fill:#a05a2c;fill-opacity:1;stroke:#784421;stroke-width:1px;stroke-linecap:butt;stroke-linejoin:miter;stroke-opacity:1"
       d="m 519.28572,281.29075 56.42857,-0.35714 0,3.21428 -56.78571,0 z"
       id="path3803"
       inkscape:connector-curvature="0" />
    <path
       style="opacity:0.60905349;fill:#a05a2c;fill-opacity:1;stroke:#784421;stroke-width:1px;stroke-linecap:butt;stroke-linejoin:miter;stroke-opacity:1"
       d="m 518.92858,255.93361 18.21428,21.07143 -19.28571,0.35714 z"
       id="path3789"
       inkscape:connector-curvature="0" />
    <path
       style="opacity:0.33333333;fill:#a05a2c;fill-opacity:1;stroke:#784421;stroke-width:1px;stroke-linecap:butt;stroke-linejoin:miter;stroke-opacity:1"
       d="m 552.85715,277.71932 22.85714,-0.35714 0,-21.07143 z"
       id="path3791"
       inkscape:connector-curvature="0" />
    <path
       style="fill:#a05a2c;fill-opacity:1;stroke:#784421;stroke-width:1px;stroke-linecap:butt;stroke-linejoin:miter;stroke-opacity:1"
       d="m 575.71429,178.43361 -0.35714,-8.21429 c 0,0 0.9414,-7.63118 3.57143,-10 3.36836,-3.03381 8.68302,-3.34676 13.21428,-3.21428 6.09793,0.17828 13.46085,0.78529 17.5,5.35714 7.76218,8.78589 7.18334,22.97209 6.07143,34.64286 -1.96906,20.66751 -12.36611,39.89931 -22.14286,58.21428 -4.26215,7.98437 -8.24075,17.03772 -15.71428,22.14286 C 577.04653,277.91591 575,278.07646 575,278.07646 l 1.07143,-3.57142 c 0,0 2.04202,-1.01312 2.85715,-1.78572 4.96197,-4.70311 8.41003,-10.84053 11.78571,-16.78571 7.34103,-12.92885 13.51398,-26.60922 18.21429,-40.71429 2.0452,-6.13743 4.19046,-12.46004 4.28571,-18.92857 0.16432,-11.15883 1.32232,-24.82781 -6.42857,-32.85714 -3.65017,-3.78129 -10.10412,-3.40499 -15.35714,-3.57143 -3.61888,-0.11466 -7.99993,-0.61047 -10.71429,1.78571 -4.37677,3.86373 -5,16.78572 -5,16.78572 z"
       id="path3797"
       inkscape:connector-curvature="0"
       sodipodi:nodetypes="ccaaaaaaccaaaaaaac" />
    <flowRoot
       xml:space="preserve"
       id="flowRoot3807"
       style="font-size:12px;font-style:normal;font-weight:normal;line-height:125%;letter-spacing:0px;word-spacing:0px;fill:#000000;fill-opacity:1;stroke:none;font-family:Sans"
       transform="translate(191.87673,-20.729154)"><flowRegion
         id="flowRegion3809"><rect
           id="rect3811"
           width="106.06603"
           height="29.546968"
           x="425.0217"
           y="140.69951" /></flowRegion><flowPara
         id="flowPara3813">bretelles rembourrés</flowPara></flowRoot>    <flowRoot
       xml:space="preserve"
       id="flowRoot3815"
       style="font-size:12px;font-style:normal;font-weight:normal;line-height:125%;letter-spacing:0px;word-spacing:0px;fill:#000000;fill-opacity:1;stroke:none;font-family:Sans"
       transform="translate(175.71429,-12.142857)"><flowRegion
         id="flowRegion3817"><rect
           id="rect3819"
           width="79.044434"
           height="18.940361"
           x="257.84143"
           y="148.78073" /></flowRegion><flowPara
         id="flowPara3821">laine</flowPara></flowRoot>    <flowRoot
       xml:space="preserve"
       id="flowRoot3823"
       style="font-size:12px;font-style:normal;font-weight:normal;line-height:125%;letter-spacing:0px;word-spacing:0px;fill:#000000;fill-opacity:1;stroke:none;font-family:Sans"
       transform="translate(175.71429,-12.142857)"><flowRegion
         id="flowRegion3825"><rect
           id="rect3827"
           width="139.14851"
           height="30.052038"
           x="222.99118"
           y="307.87976" /></flowRegion><flowPara
         id="flowPara3829">renfort</flowPara></flowRoot>    <path
       style="fill:none;stroke:#000000;stroke-width:1px;stroke-linecap:butt;stroke-linejoin:miter;stroke-opacity:1;marker-mid:none;marker-end:url(#Arrow1Mend)"
       d="m 463.8603,146.23432 103.03556,33.84011"
       id="path3831"
       inkscape:connector-curvature="0" />
    <path
       style="fill:none;stroke:#000000;stroke-width:1px;stroke-linecap:butt;stroke-linejoin:miter;stroke-opacity:1;marker-end:url(#Arrow1Mend)"
       d="m 462.59761,150.27493 84.09521,119.95561"
       id="path3833"
       inkscape:connector-curvature="0"
       sodipodi:nodetypes="cc" />
    <path
       style="fill:none;stroke:#000000;stroke-width:1px;stroke-linecap:butt;stroke-linejoin:miter;stroke-opacity:1;marker-mid:none;marker-end:url(#Arrow1Mend)"
       d="m 447.09529,305.0498 74.75129,-36.36549"
       id="path3831-3"
       inkscape:connector-curvature="0"
       sodipodi:nodetypes="cc" />
    <path
       style="fill:none;stroke:#000000;stroke-width:1px;stroke-linecap:butt;stroke-linejoin:miter;stroke-opacity:1;marker-mid:none;marker-end:url(#Arrow1Mend)"
       d="m 446.59021,308.58533 92.42896,-33.58757"
       id="path3831-9"
       inkscape:connector-curvature="0"
       sodipodi:nodetypes="cc" />
    <path
       style="fill:none;stroke:#000000;stroke-width:1px;stroke-linecap:butt;stroke-linejoin:miter;stroke-opacity:1;marker-mid:none;marker-end:url(#Arrow1Mend)"
       d="M 444.31737,311.86832 547.35293,283.07897"
       id="path3831-92"
       inkscape:connector-curvature="0"
       sodipodi:nodetypes="cc" />
    <path
       style="fill:none;stroke:#000000;stroke-width:1px;stroke-linecap:butt;stroke-linejoin:miter;stroke-opacity:1;marker-mid:none;marker-end:url(#Arrow1Mend)"
       d="m 646.60042,150.74899 -33.33504,40.15357"
       id="path3831-8"
       inkscape:connector-curvature="0"
       sodipodi:nodetypes="cc" />
    <path
       style="fill:#a0892c;stroke:#000000;stroke-width:1px;stroke-linecap:butt;stroke-linejoin:miter;stroke-opacity:1;fill-opacity:1"
       d="m 483.57143,575.93361 132.85714,2.14286 0.71428,-155.00001 c 1.57206,-16.29091 -6.81104,-25.61322 -24.28571,-28.57143 L 510,393.79075 c -13.04129,7.29562 -26.76253,14.16628 -25,30.71428 z"
       id="path4700"
       inkscape:connector-curvature="0"
       sodipodi:nodetypes="ccccccc" />
    <path
       style="fill:none;stroke:#000000;stroke-width:2;stroke-linecap:butt;stroke-linejoin:miter;stroke-opacity:1;stroke-miterlimit:4;stroke-dasharray:none"
       d="m 490,470.93361 0.71429,-51.42857 c 1.68438,-13.18771 10.88811,-15.09641 20,-17.14286 l 82.85714,-0.71428 c 8.00636,-1.25082 12.12063,5.28255 16.42857,11.42857 l 0,58.57143"
       id="path4702"
       inkscape:connector-curvature="0"
       sodipodi:nodetypes="cccccc" />
    <path
       style="fill:#c87137;stroke:#000000;stroke-width:1px;stroke-linecap:butt;stroke-linejoin:miter;stroke-opacity:1;fill-opacity:1"
       d="m 482.85714,566.6479 133.57143,2.14285 -0.71428,8.57143 -132.14286,-2.14286 z"
       id="path4704"
       inkscape:connector-curvature="0" />
    <path
       style="fill:#a05a2c;stroke:#000000;stroke-width:1px;stroke-linecap:butt;stroke-linejoin:miter;stroke-opacity:1;fill-opacity:1"
       d="m 483.57143,549.50504 0.71428,26.42857 21.42858,0.71429 z"
       id="path4706"
       inkscape:connector-curvature="0" />
    <path
       style="fill:#a05a2c;stroke:#000000;stroke-width:1px;stroke-linecap:butt;stroke-linejoin:miter;stroke-opacity:1;fill-opacity:1"
       d="m 597.85714,578.79075 18.57143,-0.71428 0,-24.28572 z"
       id="path4708"
       inkscape:connector-curvature="0" />
    <path
       style="fill:#a05a2c;stroke:#000000;stroke-width:1px;stroke-linecap:butt;stroke-linejoin:miter;stroke-opacity:1;fill-opacity:1"
       d="m 510.71429,393.79075 17.14285,-0.71428 3.57143,-5 c 0,0 6.58971,-5.95463 10.71429,-7.14286 8.46834,-2.43961 17.84733,-1.29236 26.42857,0.71429 3.31945,0.77623 6.93854,1.81345 9.28571,4.28571 1.76562,1.85972 2.85715,7.14286 2.85715,7.14286 l 13.21428,1.07143 -9.64286,-3.92858 c 0,0 -3.43963,-6.6166 -6.42857,-8.57142 -6.95996,-4.55192 -15.96956,-5.66264 -24.28571,-5.71429 -6.58526,-0.0409 -13.57257,1.01045 -19.28572,4.28571 -3.94631,2.26235 -9.28571,10 -9.28571,10 z"
       id="path4710"
       inkscape:connector-curvature="0"
       sodipodi:nodetypes="cccaaacccaaacc" />
    <path
       style="fill:none;stroke:#000000;stroke-width:1px;stroke-linecap:butt;stroke-linejoin:miter;stroke-opacity:1;marker-start:url(#Arrow1Mstart);marker-end:url(#Arrow1Mend-3)"
       d="M 71.428572,290.21932 180,319.50504"
       id="path4712"
       inkscape:connector-curvature="0" />
    <flowRoot
       xml:space="preserve"
       id="flowRoot5100"
       style="font-size:12px;font-style:normal;font-weight:normal;line-height:125%;letter-spacing:0px;word-spacing:0px;fill:#000000;fill-opacity:1;stroke:none;font-family:Sans"
       transform="translate(30.714286,-4.2857143)"><flowRegion
         id="flowRegion5102"><rect
           id="rect5104"
           width="93.571426"
           height="27.857143"
           x="52.142857"
           y="309.50504" /></flowRegion><flowPara
         id="flowPara5106">35cm</flowPara></flowRoot>    <path
       style="fill:none;stroke:#000000;stroke-width:1px;stroke-linecap:butt;stroke-linejoin:miter;stroke-opacity:1;marker-start:url(#Arrow1Mstart);marker-end:url(#Arrow1Mend-3)"
       d="m 65,120.93361 1.428571,148.57143"
       id="path5108"
       inkscape:connector-curvature="0"
       sodipodi:nodetypes="cc" />
    <flowRoot
       xml:space="preserve"
       id="flowRoot5494"
       style="font-size:12px;font-style:normal;font-weight:normal;line-height:125%;letter-spacing:0px;word-spacing:0px;fill:#000000;fill-opacity:1;stroke:none;font-family:Sans"
       transform="translate(13.571429,1.4285714)"><flowRegion
         id="flowRegion5496"><rect
           id="rect5498"
           width="57.142857"
           height="30"
           x="10.714286"
           y="179.50504" /></flowRegion><flowPara
         id="flowPara5500">50cm</flowPara></flowRoot>    <path
       style="fill:none;stroke:#000000;stroke-width:1px;stroke-linecap:butt;stroke-linejoin:miter;stroke-opacity:1;marker-start:url(#Arrow1Mstart);marker-end:url(#Arrow1Mend-3)"
       d="m 205,303.79075 34.28571,-15.71428"
       id="path5502"
       inkscape:connector-curvature="0" />
    <flowRoot
       xml:space="preserve"
       id="flowRoot5888"
       style="font-size:12px;font-style:normal;font-weight:normal;line-height:125%;letter-spacing:0px;word-spacing:0px;fill:#000000;fill-opacity:1;stroke:none;font-family:Sans"><flowRegion
         id="flowRegion5890"><rect
           id="rect5892"
           width="65"
           height="30.714285"
           x="221.42857"
           y="298.07648" /></flowRegion><flowPara
         id="flowPara5894">15cm</flowPara></flowRoot>    <path
       style="fill:none;stroke:#000000;stroke-width:1px;stroke-linecap:butt;stroke-linejoin:miter;stroke-opacity:1;marker-start:url(#Arrow1Mstart);marker-end:url(#Arrow1Mend-3)"
       d="m 470,579.50504 0.71428,-105.71429"
       id="path5896"
       inkscape:connector-curvature="0"
       sodipodi:nodetypes="cc" />
    <flowRoot
       xml:space="preserve"
       id="flowRoot6282"
       style="font-size:12px;font-style:normal;font-weight:normal;line-height:125%;letter-spacing:0px;word-spacing:0px;fill:#000000;fill-opacity:1;stroke:none;font-family:Sans"
       transform="translate(43.571429,2.1428571)"><flowRegion
         id="flowRegion6284"><rect
           id="rect6286"
           width="71.428574"
           height="29.285715"
           x="390"
           y="514.50507" /></flowRegion><flowPara
         id="flowPara6288">30cm</flowPara></flowRoot>    <path
       style="fill:none;stroke:#000000;stroke-width:1px;stroke-linecap:butt;stroke-linejoin:miter;stroke-opacity:1;marker-start:url(#Arrow1Mstart);marker-end:url(#Arrow1Mend-3)"
       d="m 470,435.7698 0,34.44952"
       id="path6290"
       inkscape:connector-curvature="0"
       sodipodi:nodetypes="cc" />
    <flowRoot
       xml:space="preserve"
       id="flowRoot6676"
       style="font-size:12px;font-style:normal;font-weight:normal;line-height:125%;letter-spacing:0px;word-spacing:0px;fill:#000000;fill-opacity:1;stroke:none;font-family:Sans"
       transform="translate(12.142857,5.7142857)"><flowRegion
         id="flowRegion6678"><rect
           id="rect6680"
           width="50.714287"
           height="18.571428"
           x="422.14285"
           y="435.21933" /></flowRegion><flowPara
         id="flowPara6682">10cm</flowPara></flowRoot>    <path
       style="fill:none;stroke:#000000;stroke-width:1px;stroke-linecap:butt;stroke-linejoin:miter;stroke-opacity:1;marker-start:url(#Arrow1Mstart);marker-end:url(#Arrow1Mend-3)"
       d="m 470,398.45146 0,37.08161"
       id="path6290-9"
       inkscape:connector-curvature="0"
       sodipodi:nodetypes="cc" />
    <flowRoot
       xml:space="preserve"
       id="flowRoot6676-3"
       style="font-size:12px;font-style:normal;font-weight:normal;line-height:125%;letter-spacing:0px;word-spacing:0px;fill:#000000;fill-opacity:1;stroke:none;font-family:Sans"
       transform="translate(13.047155,-24.735108)"><flowRegion
         id="flowRegion6678-8"><rect
           id="rect6680-8"
           width="50.714287"
           height="18.571428"
           x="422.14285"
           y="435.21933" /></flowRegion><flowPara
         id="flowPara6682-7">10cm</flowPara></flowRoot>    <flowRoot
       xml:space="preserve"
       id="flowRoot6741"
       style="font-size:12px;font-style:normal;font-weight:normal;line-height:125%;letter-spacing:0px;word-spacing:0px;fill:#000000;fill-opacity:1;stroke:none;font-family:Sans"><flowRegion
         id="flowRegion6743"><rect
           id="rect6745"
           width="275.71429"
           height="59.285713"
           x="47.142857"
           y="407.36218" /></flowRegion><flowPara
         id="flowPara6747">la laine est tenu avec du velcro</flowPara></flowRoot>  </g>
</svg>
